{
    "asset" : {
        "generator" : "Khronos glTF Blender I/O v1.5.17",
        "version" : "2.0"
    },
    "scene" : 0,
    "scenes" : [
        {
            "name" : "Scene",
            "nodes" : [
                0,
                1,
                2
            ]
        }
    ],
    "nodes" : [
        {
            "name" : "Light",
            "rotation" : [
                0.08570005744695663,
                0.8859508633613586,
                -0.3087384104728699,
                0.3353019058704376
            ],
            "translation" : [
                2.999852418899536,
                5.903861999511719,
                -2.862166166305542
            ]
        },
        {
            "name" : "Camera",
            "rotation" : [
                0.483536034822464,
                0.33687159419059753,
                -0.20870360732078552,
                0.7804827094078064
            ],
            "translation" : [
                9.38341236114502,
                6.696000099182129,
                8.315241813659668
            ]
        },
        {
            "mesh" : 0,
            "name" : "Cylinder.002",
            "rotation" : [
                0.6347682476043701,
                -0.3635117709636688,
                0.5105665326118469,
                0.4519405961036682
            ],
            "translation" : [
                0.822466254234314,
                0.32930758595466614,
                -0.1896900087594986
            ]
        }
    ],
    "animations" : [
        {
            "channels" : [
                {
                    "sampler" : 0,
                    "target" : {
                        "node" : 2,
                        "path" : "rotation"
                    }
                }
            ],
            "name" : "Cylinder.002Action",
            "samplers" : [
                {
                    "input" : 12,
                    "interpolation" : "LINEAR",
                    "output" : 13
                }
            ]
        }
    ],
    "materials" : [
        {
            "doubleSided" : true,
            "name" : "Material.003",
            "pbrMetallicRoughness" : {
                "baseColorFactor" : [
                    0.8000000715255737,
                    0.24925512075424194,
                    0.029147597029805183,
                    1
                ],
                "metallicFactor" : 0,
                "roughnessFactor" : 0.5
            }
        },
        {
            "doubleSided" : true,
            "name" : "Material.002",
            "pbrMetallicRoughness" : {
                "baseColorFactor" : [
                    0.8000000715255737,
                    0.019410528242588043,
                    0.00577943678945303,
                    1
                ],
                "metallicFactor" : 0,
                "roughnessFactor" : 0.5
            }
        },
        {
            "doubleSided" : true,
            "name" : "Material.001",
            "pbrMetallicRoughness" : {
                "baseColorFactor" : [
                    0.800000011920929,
                    0.800000011920929,
                    0.800000011920929,
                    1
                ],
                "metallicFactor" : 0,
                "roughnessFactor" : 0.5
            }
        }
    ],
    "meshes" : [
        {
            "name" : "Cylinder.002",
            "primitives" : [
                {
                    "attributes" : {
                        "POSITION" : 0,
                        "NORMAL" : 1,
                        "TEXCOORD_0" : 2
                    },
                    "indices" : 3,
                    "material" : 0
                },
                {
                    "attributes" : {
                        "POSITION" : 4,
                        "NORMAL" : 5,
                        "TEXCOORD_0" : 6
                    },
                    "indices" : 7,
                    "material" : 1
                },
                {
                    "attributes" : {
                        "POSITION" : 8,
                        "NORMAL" : 9,
                        "TEXCOORD_0" : 10
                    },
                    "indices" : 11,
                    "material" : 2
                }
            ]
        }
    ],
    "accessors" : [
        {
            "bufferView" : 0,
            "componentType" : 5126,
            "count" : 1209,
            "max" : [
                1.2124016284942627,
                2.5809898376464844,
                1.4017713069915771
            ],
            "min" : [
                -0.786114513874054,
                -0.8650311827659607,
                -1.7328133583068848
            ],
            "type" : "VEC3"
        },
        {
            "bufferView" : 1,
            "componentType" : 5126,
            "count" : 1209,
            "type" : "VEC3"
        },
        {
            "bufferView" : 2,
            "componentType" : 5126,
            "count" : 1209,
            "type" : "VEC2"
        },
        {
            "bufferView" : 3,
            "componentType" : 5123,
            "count" : 4740,
            "type" : "SCALAR"
        },
        {
            "bufferView" : 4,
            "componentType" : 5126,
            "count" : 2457,
            "max" : [
                1.2377221584320068,
                4.972801208496094,
                2.6076643466949463
            ],
            "min" : [
                -1.0634883642196655,
                -2.9359560012817383,
                -3.9062256813049316
            ],
            "type" : "VEC3"
        },
        {
            "bufferView" : 5,
            "componentType" : 5126,
            "count" : 2457,
            "type" : "VEC3"
        },
        {
            "bufferView" : 6,
            "componentType" : 5126,
            "count" : 2457,
            "type" : "VEC2"
        },
        {
            "bufferView" : 7,
            "componentType" : 5123,
            "count" : 10872,
            "type" : "SCALAR"
        },
        {
            "bufferView" : 8,
            "componentType" : 5126,
            "count" : 689,
            "max" : [
                -0.10383821278810501,
                -2.576068878173828,
                2.2263357639312744
            ],
            "min" : [
                -1.5057202577590942,
                -4.265109062194824,
                0.8301506638526917
            ],
            "type" : "VEC3"
        },
        {
            "bufferView" : 9,
            "componentType" : 5126,
            "count" : 689,
            "type" : "VEC3"
        },
        {
            "bufferView" : 10,
            "componentType" : 5126,
            "count" : 689,
            "type" : "VEC2"
        },
        {
            "bufferView" : 11,
            "componentType" : 5123,
            "count" : 3252,
            "type" : "SCALAR"
        },
        {
            "bufferView" : 12,
            "componentType" : 5126,
            "count" : 100,
            "max" : [
                4.166666666666667
            ],
            "min" : [
                0.041666666666666664
            ],
            "type" : "SCALAR"
        },
        {
            "bufferView" : 13,
            "componentType" : 5126,
            "count" : 100,
            "type" : "VEC4"
        }
    ],
    "bufferViews" : [
        {
            "buffer" : 0,
            "byteLength" : 14508,
            "byteOffset" : 0
        },
        {
            "buffer" : 0,
            "byteLength" : 14508,
            "byteOffset" : 14508
        },
        {
            "buffer" : 0,
            "byteLength" : 9672,
            "byteOffset" : 29016
        },
        {
            "buffer" : 0,
            "byteLength" : 9480,
            "byteOffset" : 38688
        },
        {
            "buffer" : 0,
            "byteLength" : 29484,
            "byteOffset" : 48168
        },
        {
            "buffer" : 0,
            "byteLength" : 29484,
            "byteOffset" : 77652
        },
        {
            "buffer" : 0,
            "byteLength" : 19656,
            "byteOffset" : 107136
        },
        {
            "buffer" : 0,
            "byteLength" : 21744,
            "byteOffset" : 126792
        },
        {
            "buffer" : 0,
            "byteLength" : 8268,
            "byteOffset" : 148536
        },
        {
            "buffer" : 0,
            "byteLength" : 8268,
            "byteOffset" : 156804
        },
        {
            "buffer" : 0,
            "byteLength" : 5512,
            "byteOffset" : 165072
        },
        {
            "buffer" : 0,
            "byteLength" : 6504,
            "byteOffset" : 170584
        },
        {
            "buffer" : 0,
            "byteLength" : 400,
            "byteOffset" : 177088
        },
        {
            "buffer" : 0,
            "byteLength" : 1600,
            "byteOffset" : 177488
        }
    ],
    "buffers" : [
        {
            "byteLength" : 179088,
            "uri" : "data:application/octet-stream;base64,"
        }
    ]
}
