{
    "asset" : {
        "generator" : "Khronos glTF Blender I/O v1.5.17",
        "version" : "2.0"
    },
    "scene" : 0,
    "scenes" : [
        {
            "name" : "Scene",
            "nodes" : [
                0,
                1,
                2
            ]
        }
    ],
    "nodes" : [
        {
            "name" : "Light",
            "rotation" : [
                0.08570005744695663,
                0.8859508633613586,
                -0.3087384104728699,
                0.3353019058704376
            ],
            "translation" : [
                2.999852418899536,
                5.903861999511719,
                -2.862166166305542
            ]
        },
        {
            "name" : "Camera",
            "rotation" : [
                0.483536034822464,
                0.33687159419059753,
                -0.20870360732078552,
                0.7804827094078064
            ],
            "translation" : [
                8.322805404663086,
                6.675771236419678,
                8.44089412689209
            ]
        },
        {
            "mesh" : 0,
            "name" : "Cylinder.003",
            "rotation" : [
                0,
                -0.3812471330165863,
                0,
                0.9244732856750488
            ],
            "translation" : [
                -0.08224675804376602,
                1.25191330909729,
                0.3617784082889557
            ]
        }
    ],
    "animations" : [
        {
            "channels" : [
                {
                    "sampler" : 0,
                    "target" : {
                        "node" : 2,
                        "path" : "rotation"
                    }
                }
            ],
            "name" : "Cylinder.003Action",
            "samplers" : [
                {
                    "input" : 12,
                    "interpolation" : "LINEAR",
                    "output" : 13
                }
            ]
        }
    ],
    "materials" : [
        {
            "doubleSided" : true,
            "name" : "Material.003",
            "pbrMetallicRoughness" : {
                "baseColorFactor" : [
                    0.8000000715255737,
                    0.24925512075424194,
                    0.029147597029805183,
                    1
                ],
                "metallicFactor" : 0,
                "roughnessFactor" : 0.5
            }
        },
        {
            "doubleSided" : true,
            "name" : "Material.002",
            "pbrMetallicRoughness" : {
                "baseColorFactor" : [
                    0.8000000715255737,
                    0.019410528242588043,
                    0.00577943678945303,
                    1
                ],
                "metallicFactor" : 0,
                "roughnessFactor" : 0.5
            }
        },
        {
            "doubleSided" : true,
            "name" : "Material.001",
            "pbrMetallicRoughness" : {
                "baseColorFactor" : [
                    0.800000011920929,
                    0.800000011920929,
                    0.800000011920929,
                    1
                ],
                "metallicFactor" : 0,
                "roughnessFactor" : 0.5
            }
        }
    ],
    "meshes" : [
        {
            "name" : "Cylinder.003",
            "primitives" : [
                {
                    "attributes" : {
                        "POSITION" : 0,
                        "NORMAL" : 1,
                        "TEXCOORD_0" : 2
                    },
                    "indices" : 3,
                    "material" : 0
                },
                {
                    "attributes" : {
                        "POSITION" : 4,
                        "NORMAL" : 5,
                        "TEXCOORD_0" : 6
                    },
                    "indices" : 7,
                    "material" : 1
                },
                {
                    "attributes" : {
                        "POSITION" : 8,
                        "NORMAL" : 9,
                        "TEXCOORD_0" : 10
                    },
                    "indices" : 11,
                    "material" : 2
                }
            ]
        }
    ],
    "accessors" : [
        {
            "bufferView" : 0,
            "componentType" : 5126,
            "count" : 1209,
            "max" : [
                1.41920804977417,
                0.5,
                1.3925976753234863
            ],
            "min" : [
                -1.7750518321990967,
                -2.25191330909729,
                -2.027743101119995
            ],
            "type" : "VEC3"
        },
        {
            "bufferView" : 1,
            "componentType" : 5126,
            "count" : 1209,
            "type" : "VEC3"
        },
        {
            "bufferView" : 2,
            "componentType" : 5126,
            "count" : 1209,
            "type" : "VEC2"
        },
        {
            "bufferView" : 3,
            "componentType" : 5123,
            "count" : 4740,
            "type" : "SCALAR"
        },
        {
            "bufferView" : 4,
            "componentType" : 5126,
            "count" : 3276,
            "max" : [
                2.889505624771118,
                2.891810894012451,
                3.274538993835449
            ],
            "min" : [
                -4.221022605895996,
                -2.830141067504883,
                -4.24290132522583
            ],
            "type" : "VEC3"
        },
        {
            "bufferView" : 5,
            "componentType" : 5126,
            "count" : 3276,
            "type" : "VEC3"
        },
        {
            "bufferView" : 6,
            "componentType" : 5126,
            "count" : 3276,
            "type" : "VEC2"
        },
        {
            "bufferView" : 7,
            "componentType" : 5123,
            "count" : 14496,
            "type" : "SCALAR"
        },
        {
            "bufferView" : 8,
            "componentType" : 5126,
            "count" : 2067,
            "max" : [
                3.7394890785217285,
                -0.5008021593093872,
                4.098698616027832
            ],
            "min" : [
                -5.372501373291016,
                -2.056274890899658,
                -5.417339324951172
            ],
            "type" : "VEC3"
        },
        {
            "bufferView" : 9,
            "componentType" : 5126,
            "count" : 2067,
            "type" : "VEC3"
        },
        {
            "bufferView" : 10,
            "componentType" : 5126,
            "count" : 2067,
            "type" : "VEC2"
        },
        {
            "bufferView" : 11,
            "componentType" : 5123,
            "count" : 9756,
            "type" : "SCALAR"
        },
        {
            "bufferView" : 12,
            "componentType" : 5126,
            "count" : 100,
            "max" : [
                4.166666666666667
            ],
            "min" : [
                0.041666666666666664
            ],
            "type" : "SCALAR"
        },
        {
            "bufferView" : 13,
            "componentType" : 5126,
            "count" : 100,
            "type" : "VEC4"
        }
    ],
    "bufferViews" : [
        {
            "buffer" : 0,
            "byteLength" : 14508,
            "byteOffset" : 0
        },
        {
            "buffer" : 0,
            "byteLength" : 14508,
            "byteOffset" : 14508
        },
        {
            "buffer" : 0,
            "byteLength" : 9672,
            "byteOffset" : 29016
        },
        {
            "buffer" : 0,
            "byteLength" : 9480,
            "byteOffset" : 38688
        },
        {
            "buffer" : 0,
            "byteLength" : 39312,
            "byteOffset" : 48168
        },
        {
            "buffer" : 0,
            "byteLength" : 39312,
            "byteOffset" : 87480
        },
        {
            "buffer" : 0,
            "byteLength" : 26208,
            "byteOffset" : 126792
        },
        {
            "buffer" : 0,
            "byteLength" : 28992,
            "byteOffset" : 153000
        },
        {
            "buffer" : 0,
            "byteLength" : 24804,
            "byteOffset" : 181992
        },
        {
            "buffer" : 0,
            "byteLength" : 24804,
            "byteOffset" : 206796
        },
        {
            "buffer" : 0,
            "byteLength" : 16536,
            "byteOffset" : 231600
        },
        {
            "buffer" : 0,
            "byteLength" : 19512,
            "byteOffset" : 248136
        },
        {
            "buffer" : 0,
            "byteLength" : 400,
            "byteOffset" : 267648
        },
        {
            "buffer" : 0,
            "byteLength" : 1600,
            "byteOffset" : 268048
        }
    ],
    "buffers" : [
        {
            "byteLength" : 269648,
            "uri" : "data:application/octet-stream;base64,"
        }
    ]
}
