{
    "asset" : {
        "generator" : "Khronos glTF Blender I/O v1.5.17",
        "version" : "2.0"
    },
    "scene" : 0,
    "scenes" : [
        {
            "name" : "Scene",
            "nodes" : [
                0,
                1,
                2
            ]
        }
    ],
    "nodes" : [
        {
            "name" : "Light",
            "rotation" : [
                0.08570005744695663,
                0.8859508633613586,
                -0.3087384104728699,
                0.3353019058704376
            ],
            "translation" : [
                2.999852418899536,
                5.903861999511719,
                -2.862166166305542
            ]
        },
        {
            "name" : "Camera",
            "rotation" : [
                0.4829629361629486,
                0.2241438776254654,
                -0.1294095367193222,
                0.8365163207054138
            ],
            "translation" : [
                9,
                7,
                10
            ]
        },
        {
            "mesh" : 0,
            "name" : "Sphere.021",
            "rotation" : [
                0.15038372576236725,
                0.8528685569763184,
                0.08682408183813095,
                0.49240386486053467
            ],
            "translation" : [
                2.883361577987671,
                0.22751329839229584,
                -1.1461999416351318
            ]
        }
    ],
    "animations" : [
        {
            "channels" : [
                {
                    "sampler" : 0,
                    "target" : {
                        "node" : 2,
                        "path" : "rotation"
                    }
                }
            ],
            "name" : "Sphere.021Action",
            "samplers" : [
                {
                    "input" : 12,
                    "interpolation" : "LINEAR",
                    "output" : 13
                }
            ]
        }
    ],
    "materials" : [
        {
            "doubleSided" : true,
            "name" : "Material.001",
            "pbrMetallicRoughness" : {
                "baseColorFactor" : [
                    0.800000011920929,
                    0.800000011920929,
                    0.800000011920929,
                    1
                ],
                "metallicFactor" : 0,
                "roughnessFactor" : 0.5
            }
        },
        {
            "doubleSided" : true,
            "name" : "Material.003",
            "pbrMetallicRoughness" : {
                "baseColorFactor" : [
                    0.8000000715255737,
                    0.24925512075424194,
                    0.029147597029805183,
                    1
                ],
                "metallicFactor" : 0,
                "roughnessFactor" : 0.5
            }
        },
        {
            "doubleSided" : true,
            "name" : "Material.002",
            "pbrMetallicRoughness" : {
                "baseColorFactor" : [
                    0.8000000715255737,
                    0.019410528242588043,
                    0.00577943678945303,
                    1
                ],
                "metallicFactor" : 0,
                "roughnessFactor" : 0.5
            }
        }
    ],
    "meshes" : [
        {
            "name" : "Sphere.021",
            "primitives" : [
                {
                    "attributes" : {
                        "POSITION" : 0,
                        "NORMAL" : 1,
                        "TEXCOORD_0" : 2
                    },
                    "indices" : 3,
                    "material" : 0
                },
                {
                    "attributes" : {
                        "POSITION" : 4,
                        "NORMAL" : 5,
                        "TEXCOORD_0" : 6
                    },
                    "indices" : 7,
                    "material" : 1
                },
                {
                    "attributes" : {
                        "POSITION" : 8,
                        "NORMAL" : 9,
                        "TEXCOORD_0" : 10
                    },
                    "indices" : 11,
                    "material" : 2
                }
            ]
        }
    ],
    "accessors" : [
        {
            "bufferView" : 0,
            "componentType" : 5126,
            "count" : 3575,
            "max" : [
                4.916081428527832,
                2.090406894683838,
                6.485435485839844
            ],
            "min" : [
                -5.03877592086792,
                -2.4215424060821533,
                -6.505156993865967
            ],
            "type" : "VEC3"
        },
        {
            "bufferView" : 1,
            "componentType" : 5126,
            "count" : 3575,
            "type" : "VEC3"
        },
        {
            "bufferView" : 2,
            "componentType" : 5126,
            "count" : 3575,
            "type" : "VEC2"
        },
        {
            "bufferView" : 3,
            "componentType" : 5123,
            "count" : 16632,
            "type" : "SCALAR"
        },
        {
            "bufferView" : 4,
            "componentType" : 5126,
            "count" : 2418,
            "max" : [
                1.7820242643356323,
                1.5987865924835205,
                4.481886386871338
            ],
            "min" : [
                -2.0879695415496826,
                -1.6307835578918457,
                -4.501606464385986
            ],
            "type" : "VEC3"
        },
        {
            "bufferView" : 5,
            "componentType" : 5126,
            "count" : 2418,
            "type" : "VEC3"
        },
        {
            "bufferView" : 6,
            "componentType" : 5126,
            "count" : 2418,
            "type" : "VEC2"
        },
        {
            "bufferView" : 7,
            "componentType" : 5123,
            "count" : 9480,
            "type" : "SCALAR"
        },
        {
            "bufferView" : 8,
            "componentType" : 5126,
            "count" : 4914,
            "max" : [
                3.726524829864502,
                3.8015284538269043,
                5.873486518859863
            ],
            "min" : [
                -4.293859958648682,
                -2.8262832164764404,
                -5.8932061195373535
            ],
            "type" : "VEC3"
        },
        {
            "bufferView" : 9,
            "componentType" : 5126,
            "count" : 4914,
            "type" : "VEC3"
        },
        {
            "bufferView" : 10,
            "componentType" : 5126,
            "count" : 4914,
            "type" : "VEC2"
        },
        {
            "bufferView" : 11,
            "componentType" : 5123,
            "count" : 21744,
            "type" : "SCALAR"
        },
        {
            "bufferView" : 12,
            "componentType" : 5126,
            "count" : 100,
            "max" : [
                4.166666666666667
            ],
            "min" : [
                0.041666666666666664
            ],
            "type" : "SCALAR"
        },
        {
            "bufferView" : 13,
            "componentType" : 5126,
            "count" : 100,
            "type" : "VEC4"
        }
    ],
    "bufferViews" : [
        {
            "buffer" : 0,
            "byteLength" : 42900,
            "byteOffset" : 0
        },
        {
            "buffer" : 0,
            "byteLength" : 42900,
            "byteOffset" : 42900
        },
        {
            "buffer" : 0,
            "byteLength" : 28600,
            "byteOffset" : 85800
        },
        {
            "buffer" : 0,
            "byteLength" : 33264,
            "byteOffset" : 114400
        },
        {
            "buffer" : 0,
            "byteLength" : 29016,
            "byteOffset" : 147664
        },
        {
            "buffer" : 0,
            "byteLength" : 29016,
            "byteOffset" : 176680
        },
        {
            "buffer" : 0,
            "byteLength" : 19344,
            "byteOffset" : 205696
        },
        {
            "buffer" : 0,
            "byteLength" : 18960,
            "byteOffset" : 225040
        },
        {
            "buffer" : 0,
            "byteLength" : 58968,
            "byteOffset" : 244000
        },
        {
            "buffer" : 0,
            "byteLength" : 58968,
            "byteOffset" : 302968
        },
        {
            "buffer" : 0,
            "byteLength" : 39312,
            "byteOffset" : 361936
        },
        {
            "buffer" : 0,
            "byteLength" : 43488,
            "byteOffset" : 401248
        },
        {
            "buffer" : 0,
            "byteLength" : 400,
            "byteOffset" : 444736
        },
        {
            "buffer" : 0,
            "byteLength" : 1600,
            "byteOffset" : 445136
        }
    ],
    "buffers" : [
        {
            "byteLength" : 446736,
            "uri" : "data:application/octet-stream;base64,"
        }
    ]
}
